<mxfile host="Electron" modified="2024-11-03T21:54:30.098Z" agent="Mozilla/5.0 (Windows NT 10.0; Win64; x64) AppleWebKit/537.36 (KHTML, like Gecko) draw.io/24.0.4 Chrome/120.0.6099.109 Electron/28.1.0 Safari/537.36" etag="Zs56ww9HaoOdSqJYfud3" version="24.0.4" type="device">
  <diagram name="Strona-1" id="JrP0QdDFpwxB4RrqvAJw">
    <mxGraphModel dx="1172" dy="716" grid="1" gridSize="10" guides="1" tooltips="1" connect="1" arrows="1" fold="1" page="1" pageScale="1" pageWidth="1169" pageHeight="827" math="0" shadow="0">
      <root>
        <mxCell id="0" />
        <mxCell id="1" parent="0" />
        <mxCell id="EyGZRs51vIleV47bJMPr-38" value="" style="ellipse;shape=cloud;whiteSpace=wrap;html=1;fillColor=#a69696;fillStyle=dashed;dashed=1;opacity=50;" vertex="1" parent="1">
          <mxGeometry x="305" y="80" width="560" height="490" as="geometry" />
        </mxCell>
        <mxCell id="EyGZRs51vIleV47bJMPr-15" style="edgeStyle=orthogonalEdgeStyle;rounded=0;orthogonalLoop=1;jettySize=auto;html=1;exitX=1;exitY=0;exitDx=0;exitDy=0;entryX=0.5;entryY=1;entryDx=0;entryDy=0;" edge="1" parent="1" source="EyGZRs51vIleV47bJMPr-1" target="EyGZRs51vIleV47bJMPr-3">
          <mxGeometry relative="1" as="geometry" />
        </mxCell>
        <mxCell id="EyGZRs51vIleV47bJMPr-1" value="Server" style="ellipse;whiteSpace=wrap;html=1;fillColor=#dae8fc;strokeColor=#6c8ebf;" vertex="1" parent="1">
          <mxGeometry x="410" y="320" width="120" height="80" as="geometry" />
        </mxCell>
        <mxCell id="EyGZRs51vIleV47bJMPr-35" style="edgeStyle=orthogonalEdgeStyle;rounded=0;orthogonalLoop=1;jettySize=auto;html=1;exitX=0.5;exitY=0;exitDx=0;exitDy=0;exitPerimeter=0;entryX=1;entryY=1;entryDx=0;entryDy=0;" edge="1" parent="1" source="EyGZRs51vIleV47bJMPr-2" target="EyGZRs51vIleV47bJMPr-3">
          <mxGeometry relative="1" as="geometry" />
        </mxCell>
        <mxCell id="EyGZRs51vIleV47bJMPr-2" value="Database" style="shape=cylinder3;whiteSpace=wrap;html=1;boundedLbl=1;backgroundOutline=1;size=15;fillColor=#dae8fc;strokeColor=#6c8ebf;" vertex="1" parent="1">
          <mxGeometry x="660" y="374" width="60" height="80" as="geometry" />
        </mxCell>
        <mxCell id="EyGZRs51vIleV47bJMPr-14" style="edgeStyle=orthogonalEdgeStyle;rounded=0;orthogonalLoop=1;jettySize=auto;html=1;exitX=0;exitY=1;exitDx=0;exitDy=0;entryX=0.5;entryY=0;entryDx=0;entryDy=0;" edge="1" parent="1" source="EyGZRs51vIleV47bJMPr-3" target="EyGZRs51vIleV47bJMPr-1">
          <mxGeometry relative="1" as="geometry" />
        </mxCell>
        <mxCell id="EyGZRs51vIleV47bJMPr-3" value="Dashboard" style="ellipse;whiteSpace=wrap;html=1;fillColor=#dae8fc;strokeColor=#6c8ebf;" vertex="1" parent="1">
          <mxGeometry x="550" y="170" width="120" height="80" as="geometry" />
        </mxCell>
        <mxCell id="EyGZRs51vIleV47bJMPr-4" value="Actor" style="shape=umlActor;verticalLabelPosition=bottom;verticalAlign=top;html=1;outlineConnect=0;fillColor=#f0a30a;fontColor=#000000;strokeColor=#BD7000;" vertex="1" parent="1">
          <mxGeometry x="810" y="180" width="30" height="60" as="geometry" />
        </mxCell>
        <mxCell id="EyGZRs51vIleV47bJMPr-13" style="edgeStyle=orthogonalEdgeStyle;rounded=0;orthogonalLoop=1;jettySize=auto;html=1;exitX=1;exitY=0.5;exitDx=0;exitDy=0;entryX=0.5;entryY=0;entryDx=0;entryDy=0;" edge="1" parent="1" source="EyGZRs51vIleV47bJMPr-6" target="EyGZRs51vIleV47bJMPr-3">
          <mxGeometry relative="1" as="geometry" />
        </mxCell>
        <mxCell id="EyGZRs51vIleV47bJMPr-6" value="Node" style="ellipse;whiteSpace=wrap;html=1;fillColor=#d5e8d4;strokeColor=#82b366;" vertex="1" parent="1">
          <mxGeometry x="380" y="30" width="120" height="80" as="geometry" />
        </mxCell>
        <mxCell id="EyGZRs51vIleV47bJMPr-11" style="edgeStyle=orthogonalEdgeStyle;rounded=0;orthogonalLoop=1;jettySize=auto;html=1;exitX=0.5;exitY=1;exitDx=0;exitDy=0;entryX=0.5;entryY=0;entryDx=0;entryDy=0;" edge="1" parent="1" source="EyGZRs51vIleV47bJMPr-7" target="EyGZRs51vIleV47bJMPr-8">
          <mxGeometry relative="1" as="geometry" />
        </mxCell>
        <mxCell id="EyGZRs51vIleV47bJMPr-12" style="edgeStyle=orthogonalEdgeStyle;rounded=0;orthogonalLoop=1;jettySize=auto;html=1;exitX=1;exitY=0.5;exitDx=0;exitDy=0;entryX=0;entryY=0.5;entryDx=0;entryDy=0;" edge="1" parent="1" source="EyGZRs51vIleV47bJMPr-7" target="EyGZRs51vIleV47bJMPr-6">
          <mxGeometry relative="1" as="geometry" />
        </mxCell>
        <mxCell id="EyGZRs51vIleV47bJMPr-7" value="Dummy Data Generator" style="ellipse;whiteSpace=wrap;html=1;fillColor=#fff2cc;strokeColor=#d6b656;" vertex="1" parent="1">
          <mxGeometry x="80" y="120" width="120" height="80" as="geometry" />
        </mxCell>
        <mxCell id="EyGZRs51vIleV47bJMPr-10" style="edgeStyle=orthogonalEdgeStyle;rounded=0;orthogonalLoop=1;jettySize=auto;html=1;exitX=1;exitY=0.5;exitDx=0;exitDy=0;entryX=0;entryY=0.5;entryDx=0;entryDy=0;" edge="1" parent="1" source="EyGZRs51vIleV47bJMPr-8" target="EyGZRs51vIleV47bJMPr-1">
          <mxGeometry relative="1" as="geometry" />
        </mxCell>
        <mxCell id="EyGZRs51vIleV47bJMPr-8" value="Model" style="ellipse;whiteSpace=wrap;html=1;fillColor=#ffe6cc;strokeColor=#d79b00;" vertex="1" parent="1">
          <mxGeometry x="80" y="360" width="120" height="80" as="geometry" />
        </mxCell>
        <mxCell id="EyGZRs51vIleV47bJMPr-16" style="edgeStyle=orthogonalEdgeStyle;rounded=0;orthogonalLoop=1;jettySize=auto;html=1;exitX=0.5;exitY=1;exitDx=0;exitDy=0;entryX=0;entryY=0;entryDx=0;entryDy=52.5;entryPerimeter=0;" edge="1" parent="1" source="EyGZRs51vIleV47bJMPr-1" target="EyGZRs51vIleV47bJMPr-2">
          <mxGeometry relative="1" as="geometry" />
        </mxCell>
        <mxCell id="EyGZRs51vIleV47bJMPr-19" value="Generated DataFrame Used to Train and Test the Model" style="text;html=1;align=center;verticalAlign=middle;whiteSpace=wrap;rounded=0;" vertex="1" parent="1">
          <mxGeometry x="30" y="250" width="110" height="70" as="geometry" />
        </mxCell>
        <mxCell id="EyGZRs51vIleV47bJMPr-20" value="&lt;div&gt;Simulated&lt;/div&gt;&amp;nbsp;sensor readings" style="text;html=1;align=center;verticalAlign=middle;whiteSpace=wrap;rounded=0;" vertex="1" parent="1">
          <mxGeometry x="550" y="60" width="60" height="70" as="geometry" />
        </mxCell>
        <mxCell id="EyGZRs51vIleV47bJMPr-21" value="Randomly Generated Sets of Values on Request" style="text;html=1;align=center;verticalAlign=middle;whiteSpace=wrap;rounded=0;" vertex="1" parent="1">
          <mxGeometry x="210" y="80" width="80" height="60" as="geometry" />
        </mxCell>
        <mxCell id="EyGZRs51vIleV47bJMPr-22" value="Trained Model Packaged as a Pickle File" style="text;html=1;align=center;verticalAlign=middle;whiteSpace=wrap;rounded=0;" vertex="1" parent="1">
          <mxGeometry x="200" y="350" width="100" height="40" as="geometry" />
        </mxCell>
        <mxCell id="EyGZRs51vIleV47bJMPr-23" value="Accepts Sensor Readings in JSON Format&amp;nbsp;" style="text;html=1;align=center;verticalAlign=middle;whiteSpace=wrap;rounded=0;" vertex="1" parent="1">
          <mxGeometry x="360" y="280" width="110" height="50" as="geometry" />
        </mxCell>
        <mxCell id="EyGZRs51vIleV47bJMPr-24" value="Responds with a Prediction" style="text;html=1;align=center;verticalAlign=middle;whiteSpace=wrap;rounded=0;" vertex="1" parent="1">
          <mxGeometry x="510" y="290" width="85" height="50" as="geometry" />
        </mxCell>
        <mxCell id="EyGZRs51vIleV47bJMPr-25" value="Each time a Prediction is Made, Server Inserts Sensor Readings and their Labels into the Database" style="text;html=1;align=center;verticalAlign=middle;whiteSpace=wrap;rounded=0;" vertex="1" parent="1">
          <mxGeometry x="460" y="430" width="190" height="50" as="geometry" />
        </mxCell>
        <mxCell id="EyGZRs51vIleV47bJMPr-26" value="Works as a Hub and Enables Real-Time Monitoring" style="text;html=1;align=center;verticalAlign=middle;whiteSpace=wrap;rounded=0;" vertex="1" parent="1">
          <mxGeometry x="640" y="120" width="100" height="75" as="geometry" />
        </mxCell>
        <mxCell id="EyGZRs51vIleV47bJMPr-30" value="" style="endArrow=none;dashed=1;html=1;dashPattern=1 3;strokeWidth=2;rounded=0;exitX=0.5;exitY=1;exitDx=0;exitDy=0;entryX=0.5;entryY=1;entryDx=0;entryDy=0;entryPerimeter=0;" edge="1" parent="1" source="EyGZRs51vIleV47bJMPr-8" target="EyGZRs51vIleV47bJMPr-2">
          <mxGeometry width="50" height="50" relative="1" as="geometry">
            <mxPoint x="280" y="550" as="sourcePoint" />
            <mxPoint x="330" y="500" as="targetPoint" />
            <Array as="points">
              <mxPoint x="140" y="510" />
              <mxPoint x="690" y="510" />
            </Array>
          </mxGeometry>
        </mxCell>
        <mxCell id="EyGZRs51vIleV47bJMPr-31" value="Might Provide New Data to Retrain the Model" style="text;html=1;align=center;verticalAlign=middle;whiteSpace=wrap;rounded=0;" vertex="1" parent="1">
          <mxGeometry x="430" y="510" width="260" height="30" as="geometry" />
        </mxCell>
        <mxCell id="EyGZRs51vIleV47bJMPr-32" value="" style="endArrow=none;dashed=1;html=1;dashPattern=1 3;strokeWidth=2;rounded=0;entryX=0.5;entryY=0.5;entryDx=0;entryDy=0;entryPerimeter=0;exitX=1;exitY=0.5;exitDx=0;exitDy=0;" edge="1" parent="1" source="EyGZRs51vIleV47bJMPr-3" target="EyGZRs51vIleV47bJMPr-4">
          <mxGeometry width="50" height="50" relative="1" as="geometry">
            <mxPoint x="520" y="340" as="sourcePoint" />
            <mxPoint x="570" y="290" as="targetPoint" />
          </mxGeometry>
        </mxCell>
        <mxCell id="EyGZRs51vIleV47bJMPr-36" value="Displays the latest readings along with their labels" style="text;html=1;align=center;verticalAlign=middle;whiteSpace=wrap;rounded=0;" vertex="1" parent="1">
          <mxGeometry x="690" y="320" width="120" height="40" as="geometry" />
        </mxCell>
      </root>
    </mxGraphModel>
  </diagram>
</mxfile>
